# ProBuilder 5.2.4
# https://unity3d.com/unity/features/worldbuilding/probuilder
# 7/29/2026 4:51:10 AM

mtllib ./LaneFloor.mtl
o LaneFloor

g LaneFloor
v 0.5 -0.5 0.5
v -0.5 -0.5 0.5
v -0.5 -0.46875 0.5
v 0.5 -0.46875 0.5
v -0.5 -0.4375 0.5
v 0.5 -0.4375 0.5
v -0.5 -0.40625 0.5
v 0.5 -0.40625 0.5
v -0.5 -0.375 0.5
v 0.5 -0.375 0.5
v -0.5 -0.34375 0.5
v 0.5 -0.34375 0.5
v -0.5 -0.3125 0.5
v 0.5 -0.3125 0.5
v -0.5 -0.28125 0.5
v 0.5 -0.28125 0.5
v -0.5 -0.25 0.5
v 0.5 -0.25 0.5
v -0.5 -0.21875 0.5
v 0.5 -0.21875 0.5
v -0.5 -0.1875 0.5
v 0.5 -0.1875 0.5
v -0.5 -0.15625 0.5
v 0.5 -0.15625 0.5
v -0.5 -0.125 0.5
v 0.5 -0.125 0.5
v -0.5 -0.09375 0.5
v 0.5 -0.09375 0.5
v -0.5 -0.0625 0.5
v 0.5 -0.0625 0.5
v -0.5 -0.03125 0.5
v 0.5 -0.03125 0.5
v -0.5 0 0.5
v 0.5 0 0.5
v -0.5 0.03125 0.5
v 0.5 0.03125 0.5
v -0.5 0.0625 0.5
v 0.5 0.0625 0.5
v -0.5 0.09375 0.5
v 0.5 0.09375 0.5
v -0.5 0.125 0.5
v 0.5 0.125 0.5
v -0.5 0.15625 0.5
v 0.5 0.15625 0.5
v -0.5 0.1875 0.5
v 0.5 0.1875 0.5
v -0.5 0.21875 0.5
v 0.5 0.21875 0.5
v -0.5 0.25 0.5
v 0.5 0.25 0.5
v -0.5 0.28125 0.5
v 0.5 0.28125 0.5
v -0.5 0.3125 0.5
v 0.5 0.3125 0.5
v -0.5 0.34375 0.5
v 0.5 0.34375 0.5
v -0.5 0.375 0.5
v 0.5 0.375 0.5
v -0.5 0.40625 0.5
v 0.5 0.40625 0.5
v -0.5 0.4375 0.5
v 0.5 0.4375 0.5
v -0.5 0.46875 0.5
v 0.5 0.46875 0.5
v -0.5 0.5 0.5
v 0.5 0.5 0.5
v 0.5 0 -0.5
v 0.5 0.03125 -0.5
v -0.5 0.03125 -0.5
v -0.5 0 -0.5
v 0.5 0.0625 -0.5
v -0.5 0.0625 -0.5
v 0.5 0.09375 -0.5
v -0.5 0.09375 -0.5
v 0.5 0.125 -0.5
v -0.5 0.125 -0.5
v 0.5 0.15625 -0.5
v -0.5 0.15625 -0.5
v 0.5 0.1875 -0.5
v -0.5 0.1875 -0.5
v 0.5 0.21875 -0.5
v -0.5 0.21875 -0.5
v 0.5 0.25 -0.5
v -0.5 0.25 -0.5
v 0.5 0.28125 -0.5
v -0.5 0.28125 -0.5
v 0.5 0.3125 -0.5
v -0.5 0.3125 -0.5
v 0.5 0.34375 -0.5
v -0.5 0.34375 -0.5
v 0.5 0.375 -0.5
v -0.5 0.375 -0.5
v 0.5 0.40625 -0.5
v -0.5 0.40625 -0.5
v 0.5 0.4375 -0.5
v -0.5 0.4375 -0.5
v 0.5 0.46875 -0.5
v -0.5 0.46875 -0.5
v 0.5 0.5 -0.5
v -0.5 0.5 -0.5
v 0.5 -0.5 -0.5
v 0.5 -0.46875 -0.5
v -0.5 -0.46875 -0.5
v -0.5 -0.5 -0.5
v 0.5 -0.4375 -0.5
v -0.5 -0.4375 -0.5
v 0.5 -0.40625 -0.5
v -0.5 -0.40625 -0.5
v 0.5 -0.375 -0.5
v -0.5 -0.375 -0.5
v 0.5 -0.34375 -0.5
v -0.5 -0.34375 -0.5
v 0.5 -0.3125 -0.5
v -0.5 -0.3125 -0.5
v 0.5 -0.28125 -0.5
v -0.5 -0.28125 -0.5
v 0.5 -0.25 -0.5
v -0.5 -0.25 -0.5
v 0.5 -0.21875 -0.5
v -0.5 -0.21875 -0.5
v 0.5 -0.1875 -0.5
v -0.5 -0.1875 -0.5
v 0.5 -0.15625 -0.5
v -0.5 -0.15625 -0.5
v 0.5 -0.125 -0.5
v -0.5 -0.125 -0.5
v 0.5 -0.09375 -0.5
v -0.5 -0.09375 -0.5
v 0.5 -0.0625 -0.5
v -0.5 -0.0625 -0.5
v 0.5 -0.03125 -0.5
v -0.5 -0.03125 -0.5
v -0.5 0.5 0
v 0.5 0.5 0
v 0.5 0.5 0.00390625
v -0.5 0.5 0.00390625
v 0.5 0.5 0.0078125
v -0.5 0.5 0.0078125
v 0.5 0.5 0.01171875
v -0.5 0.5 0.01171875
v 0.5 0.5 0.015625
v -0.5 0.5 0.015625
v 0.5 0.5 0.01953125
v -0.5 0.5 0.01953125
v 0.5 0.5 0.0234375
v -0.5 0.5 0.0234375
v 0.5 0.5 0.02734375
v -0.5 0.5 0.02734375
v 0.5 0.5 0.03125
v -0.5 0.5 0.03125
v 0.5 0.5 0.03515625
v -0.5 0.5 0.03515625
v 0.5 0.5 0.0390625
v -0.5 0.5 0.0390625
v 0.5 0.5 0.04296875
v -0.5 0.5 0.04296875
v 0.5 0.5 0.046875
v -0.5 0.5 0.046875
v 0.5 0.5 0.05078125
v -0.5 0.5 0.05078125
v 0.5 0.5 0.0546875
v -0.5 0.5 0.0546875
v 0.5 0.5 0.05859375
v -0.5 0.5 0.05859375
v 0.5 0.5 0.0625
v -0.5 0.5 0.0625
v 0.5 0.5 0.06640625
v -0.5 0.5 0.06640625
v 0.5 0.5 0.0703125
v -0.5 0.5 0.0703125
v 0.5 0.5 0.07421875
v -0.5 0.5 0.07421875
v 0.5 0.5 0.078125
v -0.5 0.5 0.078125
v 0.5 0.5 0.08203125
v -0.5 0.5 0.08203125
v 0.5 0.5 0.0859375
v -0.5 0.5 0.0859375
v 0.5 0.5 0.08984375
v -0.5 0.5 0.08984375
v 0.5 0.5 0.09375
v -0.5 0.5 0.09375
v 0.5 0.5 0.09765625
v -0.5 0.5 0.09765625
v 0.5 0.5 0.1015625
v -0.5 0.5 0.1015625
v 0.5 0.5 0.1054688
v -0.5 0.5 0.1054688
v 0.5 0.5 0.109375
v -0.5 0.5 0.109375
v 0.5 0.5 0.1132813
v -0.5 0.5 0.1132813
v 0.5 0.5 0.1171875
v -0.5 0.5 0.1171875
v 0.5 0.5 0.1210938
v -0.5 0.5 0.1210938
v 0.5 0.5 0.125
v -0.5 0.5 0.125
v 0.5 0.5 0.1289063
v -0.5 0.5 0.1289063
v 0.5 0.5 0.1328125
v -0.5 0.5 0.1328125
v 0.5 0.5 0.1367188
v -0.5 0.5 0.1367188
v 0.5 0.5 0.140625
v -0.5 0.5 0.140625
v 0.5 0.5 0.1445313
v -0.5 0.5 0.1445313
v 0.5 0.5 0.1484375
v -0.5 0.5 0.1484375
v 0.5 0.5 0.1523438
v -0.5 0.5 0.1523438
v 0.5 0.5 0.15625
v -0.5 0.5 0.15625
v 0.5 0.5 0.1601563
v -0.5 0.5 0.1601563
v 0.5 0.5 0.1640625
v -0.5 0.5 0.1640625
v 0.5 0.5 0.1679688
v -0.5 0.5 0.1679688
v 0.5 0.5 0.171875
v -0.5 0.5 0.171875
v 0.5 0.5 0.1757813
v -0.5 0.5 0.1757813
v 0.5 0.5 0.1796875
v -0.5 0.5 0.1796875
v 0.5 0.5 0.1835938
v -0.5 0.5 0.1835938
v 0.5 0.5 0.1875
v -0.5 0.5 0.1875
v 0.5 0.5 0.1914063
v -0.5 0.5 0.1914063
v 0.5 0.5 0.1953125
v -0.5 0.5 0.1953125
v 0.5 0.5 0.1992188
v -0.5 0.5 0.1992188
v 0.5 0.5 0.203125
v -0.5 0.5 0.203125
v 0.5 0.5 0.2070313
v -0.5 0.5 0.2070313
v 0.5 0.5 0.2109375
v -0.5 0.5 0.2109375
v 0.5 0.5 0.2148438
v -0.5 0.5 0.2148438
v 0.5 0.5 0.21875
v -0.5 0.5 0.21875
v 0.5 0.5 0.2226563
v -0.5 0.5 0.2226563
v 0.5 0.5 0.2265625
v -0.5 0.5 0.2265625
v 0.5 0.5 0.2304688
v -0.5 0.5 0.2304688
v 0.5 0.5 0.234375
v -0.5 0.5 0.234375
v 0.5 0.5 0.2382813
v -0.5 0.5 0.2382813
v 0.5 0.5 0.2421875
v -0.5 0.5 0.2421875
v 0.5 0.5 0.2460938
v -0.5 0.5 0.2460938
v 0.5 0.5 0.25
v -0.5 0.5 0.25
v 0.5 0.5 0.2539063
v -0.5 0.5 0.2539063
v 0.5 0.5 0.2578125
v -0.5 0.5 0.2578125
v 0.5 0.5 0.2617188
v -0.5 0.5 0.2617188
v 0.5 0.5 0.265625
v -0.5 0.5 0.265625
v 0.5 0.5 0.2695313
v -0.5 0.5 0.2695313
v 0.5 0.5 0.2734375
v -0.5 0.5 0.2734375
v 0.5 0.5 0.2773438
v -0.5 0.5 0.2773438
v 0.5 0.5 0.28125
v -0.5 0.5 0.28125
v 0.5 0.5 0.2851563
v -0.5 0.5 0.2851563
v 0.5 0.5 0.2890625
v -0.5 0.5 0.2890625
v 0.5 0.5 0.2929688
v -0.5 0.5 0.2929688
v 0.5 0.5 0.296875
v -0.5 0.5 0.296875
v 0.5 0.5 0.3007813
v -0.5 0.5 0.3007813
v 0.5 0.5 0.3046875
v -0.5 0.5 0.3046875
v 0.5 0.5 0.3085938
v -0.5 0.5 0.3085938
v 0.5 0.5 0.3125
v -0.5 0.5 0.3125
v 0.5 0.5 0.3164063
v -0.5 0.5 0.3164063
v 0.5 0.5 0.3203125
v -0.5 0.5 0.3203125
v 0.5 0.5 0.3242188
v -0.5 0.5 0.3242188
v 0.5 0.5 0.328125
v -0.5 0.5 0.328125
v 0.5 0.5 0.3320313
v -0.5 0.5 0.3320313
v 0.5 0.5 0.3359375
v -0.5 0.5 0.3359375
v 0.5 0.5 0.3398438
v -0.5 0.5 0.3398438
v 0.5 0.5 0.34375
v -0.5 0.5 0.34375
v 0.5 0.5 0.3476563
v -0.5 0.5 0.3476563
v 0.5 0.5 0.3515625
v -0.5 0.5 0.3515625
v 0.5 0.5 0.3554688
v -0.5 0.5 0.3554688
v 0.5 0.5 0.359375
v -0.5 0.5 0.359375
v 0.5 0.5 0.3632813
v -0.5 0.5 0.3632813
v 0.5 0.5 0.3671875
v -0.5 0.5 0.3671875
v 0.5 0.5 0.3710938
v -0.5 0.5 0.3710938
v 0.5 0.5 0.375
v -0.5 0.5 0.375
v 0.5 0.5 0.3789063
v -0.5 0.5 0.3789063
v 0.5 0.5 0.3828125
v -0.5 0.5 0.3828125
v 0.5 0.5 0.3867188
v -0.5 0.5 0.3867188
v 0.5 0.5 0.390625
v -0.5 0.5 0.390625
v 0.5 0.5 0.3945313
v -0.5 0.5 0.3945313
v 0.5 0.5 0.3984375
v -0.5 0.5 0.3984375
v 0.5 0.5 0.4023438
v -0.5 0.5 0.4023438
v 0.5 0.5 0.40625
v -0.5 0.5 0.40625
v 0.5 0.5 0.4101563
v -0.5 0.5 0.4101563
v 0.5 0.5 0.4140625
v -0.5 0.5 0.4140625
v 0.5 0.5 0.4179688
v -0.5 0.5 0.4179688
v 0.5 0.5 0.421875
v -0.5 0.5 0.421875
v 0.5 0.5 0.4257813
v -0.5 0.5 0.4257813
v 0.5 0.5 0.4296875
v -0.5 0.5 0.4296875
v 0.5 0.5 0.4335938
v -0.5 0.5 0.4335938
v 0.5 0.5 0.4375
v -0.5 0.5 0.4375
v 0.5 0.5 0.4414063
v -0.5 0.5 0.4414063
v 0.5 0.5 0.4453125
v -0.5 0.5 0.4453125
v 0.5 0.5 0.4492188
v -0.5 0.5 0.4492188
v 0.5 0.5 0.453125
v -0.5 0.5 0.453125
v 0.5 0.5 0.4570313
v -0.5 0.5 0.4570313
v 0.5 0.5 0.4609375
v -0.5 0.5 0.4609375
v 0.5 0.5 0.4648438
v -0.5 0.5 0.4648438
v 0.5 0.5 0.46875
v -0.5 0.5 0.46875
v 0.5 0.5 0.4726563
v -0.5 0.5 0.4726563
v 0.5 0.5 0.4765625
v -0.5 0.5 0.4765625
v 0.5 0.5 0.4804688
v -0.5 0.5 0.4804688
v 0.5 0.5 0.484375
v -0.5 0.5 0.484375
v 0.5 0.5 0.4882813
v -0.5 0.5 0.4882813
v 0.5 0.5 0.4921875
v -0.5 0.5 0.4921875
v 0.5 0.5 0.4960938
v -0.5 0.5 0.4960938
v 0.5 0.5 -0.4960938
v -0.5 0.5 -0.4960938
v 0.5 0.5 -0.4921875
v -0.5 0.5 -0.4921875
v 0.5 0.5 -0.4882813
v -0.5 0.5 -0.4882813
v 0.5 0.5 -0.484375
v -0.5 0.5 -0.484375
v 0.5 0.5 -0.4804688
v -0.5 0.5 -0.4804688
v 0.5 0.5 -0.4765625
v -0.5 0.5 -0.4765625
v 0.5 0.5 -0.4726563
v -0.5 0.5 -0.4726563
v 0.5 0.5 -0.46875
v -0.5 0.5 -0.46875
v 0.5 0.5 -0.4648438
v -0.5 0.5 -0.4648438
v 0.5 0.5 -0.4609375
v -0.5 0.5 -0.4609375
v 0.5 0.5 -0.4570313
v -0.5 0.5 -0.4570313
v 0.5 0.5 -0.453125
v -0.5 0.5 -0.453125
v 0.5 0.5 -0.4492188
v -0.5 0.5 -0.4492188
v 0.5 0.5 -0.4453125
v -0.5 0.5 -0.4453125
v 0.5 0.5 -0.4414063
v -0.5 0.5 -0.4414063
v 0.5 0.5 -0.4375
v -0.5 0.5 -0.4375
v 0.5 0.5 -0.4335938
v -0.5 0.5 -0.4335938
v 0.5 0.5 -0.4296875
v -0.5 0.5 -0.4296875
v 0.5 0.5 -0.4257813
v -0.5 0.5 -0.4257813
v 0.5 0.5 -0.421875
v -0.5 0.5 -0.421875
v 0.5 0.5 -0.4179688
v -0.5 0.5 -0.4179688
v 0.5 0.5 -0.4140625
v -0.5 0.5 -0.4140625
v 0.5 0.5 -0.4101563
v -0.5 0.5 -0.4101563
v 0.5 0.5 -0.40625
v -0.5 0.5 -0.40625
v 0.5 0.5 -0.4023438
v -0.5 0.5 -0.4023438
v 0.5 0.5 -0.3984375
v -0.5 0.5 -0.3984375
v 0.5 0.5 -0.3945313
v -0.5 0.5 -0.3945313
v 0.5 0.5 -0.390625
v -0.5 0.5 -0.390625
v 0.5 0.5 -0.3867188
v -0.5 0.5 -0.3867188
v 0.5 0.5 -0.3828125
v -0.5 0.5 -0.3828125
v 0.5 0.5 -0.3789063
v -0.5 0.5 -0.3789063
v 0.5 0.5 -0.375
v -0.5 0.5 -0.375
v 0.5 0.5 -0.3710938
v -0.5 0.5 -0.3710938
v 0.5 0.5 -0.3671875
v -0.5 0.5 -0.3671875
v 0.5 0.5 -0.3632813
v -0.5 0.5 -0.3632813
v 0.5 0.5 -0.359375
v -0.5 0.5 -0.359375
v 0.5 0.5 -0.3554688
v -0.5 0.5 -0.3554688
v 0.5 0.5 -0.3515625
v -0.5 0.5 -0.3515625
v 0.5 0.5 -0.3476563
v -0.5 0.5 -0.3476563
v 0.5 0.5 -0.34375
v -0.5 0.5 -0.34375
v 0.5 0.5 -0.3398438
v -0.5 0.5 -0.3398438
v 0.5 0.5 -0.3359375
v -0.5 0.5 -0.3359375
v 0.5 0.5 -0.3320313
v -0.5 0.5 -0.3320313
v 0.5 0.5 -0.328125
v -0.5 0.5 -0.328125
v 0.5 0.5 -0.3242188
v -0.5 0.5 -0.3242188
v 0.5 0.5 -0.3203125
v -0.5 0.5 -0.3203125
v 0.5 0.5 -0.3164063
v -0.5 0.5 -0.3164063
v 0.5 0.5 -0.3125
v -0.5 0.5 -0.3125
v 0.5 0.5 -0.3085938
v -0.5 0.5 -0.3085938
v 0.5 0.5 -0.3046875
v -0.5 0.5 -0.3046875
v 0.5 0.5 -0.3007813
v -0.5 0.5 -0.3007813
v 0.5 0.5 -0.296875
v -0.5 0.5 -0.296875
v 0.5 0.5 -0.2929688
v -0.5 0.5 -0.2929688
v 0.5 0.5 -0.2890625
v -0.5 0.5 -0.2890625
v 0.5 0.5 -0.2851563
v -0.5 0.5 -0.2851563
v 0.5 0.5 -0.28125
v -0.5 0.5 -0.28125
v 0.5 0.5 -0.2773438
v -0.5 0.5 -0.2773438
v 0.5 0.5 -0.2734375
v -0.5 0.5 -0.2734375
v 0.5 0.5 -0.2695313
v -0.5 0.5 -0.2695313
v 0.5 0.5 -0.265625
v -0.5 0.5 -0.265625
v 0.5 0.5 -0.2617188
v -0.5 0.5 -0.2617188
v 0.5 0.5 -0.2578125
v -0.5 0.5 -0.2578125
v 0.5 0.5 -0.2539063
v -0.5 0.5 -0.2539063
v 0.5 0.5 -0.25
v -0.5 0.5 -0.25
v 0.5 0.5 -0.2460938
v -0.5 0.5 -0.2460938
v 0.5 0.5 -0.2421875
v -0.5 0.5 -0.2421875
v 0.5 0.5 -0.2382813
v -0.5 0.5 -0.2382813
v 0.5 0.5 -0.234375
v -0.5 0.5 -0.234375
v 0.5 0.5 -0.2304688
v -0.5 0.5 -0.2304688
v 0.5 0.5 -0.2265625
v -0.5 0.5 -0.2265625
v 0.5 0.5 -0.2226563
v -0.5 0.5 -0.2226563
v 0.5 0.5 -0.21875
v -0.5 0.5 -0.21875
v 0.5 0.5 -0.2148438
v -0.5 0.5 -0.2148438
v 0.5 0.5 -0.2109375
v -0.5 0.5 -0.2109375
v 0.5 0.5 -0.2070313
v -0.5 0.5 -0.2070313
v 0.5 0.5 -0.203125
v -0.5 0.5 -0.203125
v 0.5 0.5 -0.1992188
v -0.5 0.5 -0.1992188
v 0.5 0.5 -0.1953125
v -0.5 0.5 -0.1953125
v 0.5 0.5 -0.1914063
v -0.5 0.5 -0.1914063
v 0.5 0.5 -0.1875
v -0.5 0.5 -0.1875
v 0.5 0.5 -0.1835938
v -0.5 0.5 -0.1835938
v 0.5 0.5 -0.1796875
v -0.5 0.5 -0.1796875
v 0.5 0.5 -0.1757813
v -0.5 0.5 -0.1757813
v 0.5 0.5 -0.171875
v -0.5 0.5 -0.171875
v 0.5 0.5 -0.1679688
v -0.5 0.5 -0.1679688
v 0.5 0.5 -0.1640625
v -0.5 0.5 -0.1640625
v 0.5 0.5 -0.1601563
v -0.5 0.5 -0.1601563
v 0.5 0.5 -0.15625
v -0.5 0.5 -0.15625
v 0.5 0.5 -0.1523438
v -0.5 0.5 -0.1523438
v 0.5 0.5 -0.1484375
v -0.5 0.5 -0.1484375
v 0.5 0.5 -0.1445313
v -0.5 0.5 -0.1445313
v 0.5 0.5 -0.140625
v -0.5 0.5 -0.140625
v 0.5 0.5 -0.1367188
v -0.5 0.5 -0.1367188
v 0.5 0.5 -0.1328125
v -0.5 0.5 -0.1328125
v 0.5 0.5 -0.1289063
v -0.5 0.5 -0.1289063
v 0.5 0.5 -0.125
v -0.5 0.5 -0.125
v 0.5 0.5 -0.1210938
v -0.5 0.5 -0.1210938
v 0.5 0.5 -0.1171875
v -0.5 0.5 -0.1171875
v 0.5 0.5 -0.1132813
v -0.5 0.5 -0.1132813
v 0.5 0.5 -0.109375
v -0.5 0.5 -0.109375
v 0.5 0.5 -0.1054688
v -0.5 0.5 -0.1054688
v 0.5 0.5 -0.1015625
v -0.5 0.5 -0.1015625
v 0.5 0.5 -0.09765625
v -0.5 0.5 -0.09765625
v 0.5 0.5 -0.09375
v -0.5 0.5 -0.09375
v 0.5 0.5 -0.08984375
v -0.5 0.5 -0.08984375
v 0.5 0.5 -0.0859375
v -0.5 0.5 -0.0859375
v 0.5 0.5 -0.08203125
v -0.5 0.5 -0.08203125
v 0.5 0.5 -0.078125
v -0.5 0.5 -0.078125
v 0.5 0.5 -0.07421875
v -0.5 0.5 -0.07421875
v 0.5 0.5 -0.0703125
v -0.5 0.5 -0.0703125
v 0.5 0.5 -0.06640625
v -0.5 0.5 -0.06640625
v 0.5 0.5 -0.0625
v -0.5 0.5 -0.0625
v 0.5 0.5 -0.05859375
v -0.5 0.5 -0.05859375
v 0.5 0.5 -0.0546875
v -0.5 0.5 -0.0546875
v 0.5 0.5 -0.05078125
v -0.5 0.5 -0.05078125
v 0.5 0.5 -0.046875
v -0.5 0.5 -0.046875
v 0.5 0.5 -0.04296875
v -0.5 0.5 -0.04296875
v 0.5 0.5 -0.0390625
v -0.5 0.5 -0.0390625
v 0.5 0.5 -0.03515625
v -0.5 0.5 -0.03515625
v 0.5 0.5 -0.03125
v -0.5 0.5 -0.03125
v 0.5 0.5 -0.02734375
v -0.5 0.5 -0.02734375
v 0.5 0.5 -0.0234375
v -0.5 0.5 -0.0234375
v 0.5 0.5 -0.01953125
v -0.5 0.5 -0.01953125
v 0.5 0.5 -0.015625
v -0.5 0.5 -0.015625
v 0.5 0.5 -0.01171875
v -0.5 0.5 -0.01171875
v 0.5 0.5 -0.0078125
v -0.5 0.5 -0.0078125
v 0.5 0.5 -0.00390625
v -0.5 0.5 -0.00390625

vt 1 0
vt 0 0
vt 0 0.03125
vt 1 0.03125
vt 0 0.0625
vt 1 0.0625
vt 0 0.09375
vt 1 0.09375
vt 0 0.125
vt 1 0.125
vt 0 0.15625
vt 1 0.15625
vt 0 0.1875
vt 1 0.1875
vt 0 0.21875
vt 1 0.21875
vt 0 0.25
vt 1 0.25
vt 0 0.28125
vt 1 0.28125
vt 0 0.3125
vt 1 0.3125
vt 0 0.34375
vt 1 0.34375
vt 0 0.375
vt 1 0.375
vt 0 0.40625
vt 1 0.40625
vt 0 0.4375
vt 1 0.4375
vt 0 0.46875
vt 1 0.46875
vt 0 0.5
vt 1 0.5
vt 0 0.53125
vt 1 0.53125
vt 0 0.5625
vt 1 0.5625
vt 0 0.59375
vt 1 0.59375
vt 0 0.625
vt 1 0.625
vt 0 0.65625
vt 1 0.65625
vt 0 0.6875
vt 1 0.6875
vt 0 0.71875
vt 1 0.71875
vt 0 0.75
vt 1 0.75
vt 0 0.78125
vt 1 0.78125
vt 0 0.8125
vt 1 0.8125
vt 0 0.84375
vt 1 0.84375
vt 0 0.875
vt 1 0.875
vt 0 0.90625
vt 1 0.90625
vt 0 0.9375
vt 1 0.9375
vt 0 0.96875
vt 1 0.96875
vt 0 1
vt 1 1
vt 1 0.4960938
vt 0 0.4960938
vt 1 0.4921875
vt 0 0.4921875
vt 1 0.4882813
vt 0 0.4882813
vt 1 0.484375
vt 0 0.484375
vt 1 0.4804688
vt 0 0.4804688
vt 1 0.4765625
vt 0 0.4765625
vt 1 0.4726563
vt 0 0.4726563
vt 1 0.4648438
vt 0 0.4648438
vt 1 0.4609375
vt 0 0.4609375
vt 1 0.4570313
vt 0 0.4570313
vt 1 0.453125
vt 0 0.453125
vt 1 0.4492188
vt 0 0.4492188
vt 1 0.4453125
vt 0 0.4453125
vt 1 0.4414063
vt 0 0.4414063
vt 1 0.4335938
vt 0 0.4335938
vt 1 0.4296875
vt 0 0.4296875
vt 1 0.4257813
vt 0 0.4257813
vt 1 0.421875
vt 0 0.421875
vt 1 0.4179688
vt 0 0.4179688
vt 1 0.4140625
vt 0 0.4140625
vt 1 0.4101563
vt 0 0.4101563
vt 1 0.4023438
vt 0 0.4023438
vt 1 0.3984375
vt 0 0.3984375
vt 1 0.3945313
vt 0 0.3945313
vt 1 0.390625
vt 0 0.390625
vt 1 0.3867188
vt 0 0.3867188
vt 1 0.3828125
vt 0 0.3828125
vt 1 0.3789063
vt 0 0.3789063
vt 1 0.3710938
vt 0 0.3710938
vt 1 0.3671875
vt 0 0.3671875
vt 1 0.3632813
vt 0 0.3632813
vt 1 0.359375
vt 0 0.359375
vt 1 0.3554688
vt 0 0.3554688
vt 1 0.3515625
vt 0 0.3515625
vt 1 0.3476563
vt 0 0.3476563
vt 1 0.3398438
vt 0 0.3398438
vt 1 0.3359375
vt 0 0.3359375
vt 1 0.3320313
vt 0 0.3320313
vt 1 0.328125
vt 0 0.328125
vt 1 0.3242188
vt 0 0.3242188
vt 1 0.3203125
vt 0 0.3203125
vt 1 0.3164063
vt 0 0.3164063
vt 1 0.3085938
vt 0 0.3085938
vt 1 0.3046875
vt 0 0.3046875
vt 1 0.3007813
vt 0 0.3007813
vt 1 0.296875
vt 0 0.296875
vt 1 0.2929688
vt 0 0.2929688
vt 1 0.2890625
vt 0 0.2890625
vt 1 0.2851563
vt 0 0.2851563
vt 1 0.2773438
vt 0 0.2773438
vt 1 0.2734375
vt 0 0.2734375
vt 1 0.2695313
vt 0 0.2695313
vt 1 0.265625
vt 0 0.265625
vt 1 0.2617188
vt 0 0.2617188
vt 1 0.2578125
vt 0 0.2578125
vt 1 0.2539063
vt 0 0.2539063
vt 1 0.2460938
vt 0 0.2460938
vt 1 0.2421875
vt 0 0.2421875
vt 1 0.2382813
vt 0 0.2382813
vt 1 0.234375
vt 0 0.234375
vt 1 0.2304688
vt 0 0.2304688
vt 1 0.2265625
vt 0 0.2265625
vt 1 0.2226563
vt 0 0.2226563
vt 1 0.2148438
vt 0 0.2148438
vt 1 0.2109375
vt 0 0.2109375
vt 1 0.2070313
vt 0 0.2070313
vt 1 0.203125
vt 0 0.203125
vt 1 0.1992188
vt 0 0.1992188
vt 1 0.1953125
vt 0 0.1953125
vt 1 0.1914063
vt 0 0.1914063
vt 1 0.1835938
vt 0 0.1835938
vt 1 0.1796875
vt 0 0.1796875
vt 1 0.1757813
vt 0 0.1757813
vt 1 0.171875
vt 0 0.171875
vt 1 0.1679688
vt 0 0.1679688
vt 1 0.1640625
vt 0 0.1640625
vt 1 0.1601563
vt 0 0.1601563
vt 1 0.1523438
vt 0 0.1523438
vt 1 0.1484375
vt 0 0.1484375
vt 1 0.1445313
vt 0 0.1445313
vt 1 0.140625
vt 0 0.140625
vt 1 0.1367188
vt 0 0.1367188
vt 1 0.1328125
vt 0 0.1328125
vt 1 0.1289063
vt 0 0.1289063
vt 1 0.1210938
vt 0 0.1210938
vt 1 0.1171875
vt 0 0.1171875
vt 1 0.1132813
vt 0 0.1132813
vt 1 0.109375
vt 0 0.109375
vt 1 0.1054688
vt 0 0.1054688
vt 1 0.1015625
vt 0 0.1015625
vt 1 0.09765625
vt 0 0.09765625
vt 1 0.08984375
vt 0 0.08984375
vt 1 0.0859375
vt 0 0.0859375
vt 1 0.08203125
vt 0 0.08203125
vt 1 0.078125
vt 0 0.078125
vt 1 0.07421875
vt 0 0.07421875
vt 1 0.0703125
vt 0 0.0703125
vt 1 0.06640625
vt 0 0.06640625
vt 1 0.05859375
vt 0 0.05859375
vt 1 0.0546875
vt 0 0.0546875
vt 1 0.05078125
vt 0 0.05078125
vt 1 0.046875
vt 0 0.046875
vt 1 0.04296875
vt 0 0.04296875
vt 1 0.0390625
vt 0 0.0390625
vt 1 0.03515625
vt 0 0.03515625
vt 1 0.02734375
vt 0 0.02734375
vt 1 0.0234375
vt 0 0.0234375
vt 1 0.01953125
vt 0 0.01953125
vt 1 0.015625
vt 0 0.015625
vt 1 0.01171875
vt 0 0.01171875
vt 1 0.0078125
vt 0 0.0078125
vt 1 0.00390625
vt 0 0.00390625
vt 1 0.9960938
vt 0 0.9960938
vt 1 0.9921875
vt 0 0.9921875
vt 1 0.9882813
vt 0 0.9882813
vt 1 0.984375
vt 0 0.984375
vt 1 0.9804688
vt 0 0.9804688
vt 1 0.9765625
vt 0 0.9765625
vt 1 0.9726563
vt 0 0.9726563
vt 1 0.9648438
vt 0 0.9648438
vt 1 0.9609375
vt 0 0.9609375
vt 1 0.9570313
vt 0 0.9570313
vt 1 0.953125
vt 0 0.953125
vt 1 0.9492188
vt 0 0.9492188
vt 1 0.9453125
vt 0 0.9453125
vt 1 0.9414063
vt 0 0.9414063
vt 1 0.9335938
vt 0 0.9335938
vt 1 0.9296875
vt 0 0.9296875
vt 1 0.9257813
vt 0 0.9257813
vt 1 0.921875
vt 0 0.921875
vt 1 0.9179688
vt 0 0.9179688
vt 1 0.9140625
vt 0 0.9140625
vt 1 0.9101563
vt 0 0.9101563
vt 1 0.9023438
vt 0 0.9023438
vt 1 0.8984375
vt 0 0.8984375
vt 1 0.8945313
vt 0 0.8945313
vt 1 0.890625
vt 0 0.890625
vt 1 0.8867188
vt 0 0.8867188
vt 1 0.8828125
vt 0 0.8828125
vt 1 0.8789063
vt 0 0.8789063
vt 1 0.8710938
vt 0 0.8710938
vt 1 0.8671875
vt 0 0.8671875
vt 1 0.8632813
vt 0 0.8632813
vt 1 0.859375
vt 0 0.859375
vt 1 0.8554688
vt 0 0.8554688
vt 1 0.8515625
vt 0 0.8515625
vt 1 0.8476563
vt 0 0.8476563
vt 1 0.8398438
vt 0 0.8398438
vt 1 0.8359375
vt 0 0.8359375
vt 1 0.8320313
vt 0 0.8320313
vt 1 0.828125
vt 0 0.828125
vt 1 0.8242188
vt 0 0.8242188
vt 1 0.8203125
vt 0 0.8203125
vt 1 0.8164063
vt 0 0.8164063
vt 1 0.8085938
vt 0 0.8085938
vt 1 0.8046875
vt 0 0.8046875
vt 1 0.8007813
vt 0 0.8007813
vt 1 0.796875
vt 0 0.796875
vt 1 0.7929688
vt 0 0.7929688
vt 1 0.7890625
vt 0 0.7890625
vt 1 0.7851563
vt 0 0.7851563
vt 1 0.7773438
vt 0 0.7773438
vt 1 0.7734375
vt 0 0.7734375
vt 1 0.7695313
vt 0 0.7695313
vt 1 0.765625
vt 0 0.765625
vt 1 0.7617188
vt 0 0.7617188
vt 1 0.7578125
vt 0 0.7578125
vt 1 0.7539063
vt 0 0.7539063
vt 1 0.7460938
vt 0 0.7460938
vt 1 0.7421875
vt 0 0.7421875
vt 1 0.7382813
vt 0 0.7382813
vt 1 0.734375
vt 0 0.734375
vt 1 0.7304688
vt 0 0.7304688
vt 1 0.7265625
vt 0 0.7265625
vt 1 0.7226563
vt 0 0.7226563
vt 1 0.7148438
vt 0 0.7148438
vt 1 0.7109375
vt 0 0.7109375
vt 1 0.7070313
vt 0 0.7070313
vt 1 0.703125
vt 0 0.703125
vt 1 0.6992188
vt 0 0.6992188
vt 1 0.6953125
vt 0 0.6953125
vt 1 0.6914063
vt 0 0.6914063
vt 1 0.6835938
vt 0 0.6835938
vt 1 0.6796875
vt 0 0.6796875
vt 1 0.6757813
vt 0 0.6757813
vt 1 0.671875
vt 0 0.671875
vt 1 0.6679688
vt 0 0.6679688
vt 1 0.6640625
vt 0 0.6640625
vt 1 0.6601563
vt 0 0.6601563
vt 1 0.6523438
vt 0 0.6523438
vt 1 0.6484375
vt 0 0.6484375
vt 1 0.6445313
vt 0 0.6445313
vt 1 0.640625
vt 0 0.640625
vt 1 0.6367188
vt 0 0.6367188
vt 1 0.6328125
vt 0 0.6328125
vt 1 0.6289063
vt 0 0.6289063
vt 1 0.6210938
vt 0 0.6210938
vt 1 0.6171875
vt 0 0.6171875
vt 1 0.6132813
vt 0 0.6132813
vt 1 0.609375
vt 0 0.609375
vt 1 0.6054688
vt 0 0.6054688
vt 1 0.6015625
vt 0 0.6015625
vt 1 0.5976563
vt 0 0.5976563
vt 1 0.5898438
vt 0 0.5898438
vt 1 0.5859375
vt 0 0.5859375
vt 1 0.5820313
vt 0 0.5820313
vt 1 0.578125
vt 0 0.578125
vt 1 0.5742188
vt 0 0.5742188
vt 1 0.5703125
vt 0 0.5703125
vt 1 0.5664063
vt 0 0.5664063
vt 1 0.5585938
vt 0 0.5585938
vt 1 0.5546875
vt 0 0.5546875
vt 1 0.5507813
vt 0 0.5507813
vt 1 0.546875
vt 0 0.546875
vt 1 0.5429688
vt 0 0.5429688
vt 1 0.5390625
vt 0 0.5390625
vt 1 0.5351563
vt 0 0.5351563
vt 1 0.5273438
vt 0 0.5273438
vt 1 0.5234375
vt 0 0.5234375
vt 1 0.5195313
vt 0 0.5195313
vt 1 0.515625
vt 0 0.515625
vt 1 0.5117188
vt 0 0.5117188
vt 1 0.5078125
vt 0 0.5078125
vt 1 0.5039063
vt 0 0.5039063

vn 0 0 1
vn 0 0 -1
vn 0 1 0

usemtl Platform
f 4/4/1 3/3/1 2/2/1 1/1/1
f 6/6/1 5/5/1 3/3/1 4/4/1
f 8/8/1 7/7/1 5/5/1 6/6/1
f 10/10/1 9/9/1 7/7/1 8/8/1
f 12/12/1 11/11/1 9/9/1 10/10/1
f 14/14/1 13/13/1 11/11/1 12/12/1
f 16/16/1 15/15/1 13/13/1 14/14/1
f 18/18/1 17/17/1 15/15/1 16/16/1
f 20/20/1 19/19/1 17/17/1 18/18/1
f 22/22/1 21/21/1 19/19/1 20/20/1
f 24/24/1 23/23/1 21/21/1 22/22/1
f 26/26/1 25/25/1 23/23/1 24/24/1
f 28/28/1 27/27/1 25/25/1 26/26/1
f 30/30/1 29/29/1 27/27/1 28/28/1
f 32/32/1 31/31/1 29/29/1 30/30/1
f 34/34/1 33/33/1 31/31/1 32/32/1
f 36/36/1 35/35/1 33/33/1 34/34/1
f 38/38/1 37/37/1 35/35/1 36/36/1
f 40/40/1 39/39/1 37/37/1 38/38/1
f 42/42/1 41/41/1 39/39/1 40/40/1
f 44/44/1 43/43/1 41/41/1 42/42/1
f 46/46/1 45/45/1 43/43/1 44/44/1
f 48/48/1 47/47/1 45/45/1 46/46/1
f 50/50/1 49/49/1 47/47/1 48/48/1
f 52/52/1 51/51/1 49/49/1 50/50/1
f 54/54/1 53/53/1 51/51/1 52/52/1
f 56/56/1 55/55/1 53/53/1 54/54/1
f 58/58/1 57/57/1 55/55/1 56/56/1
f 60/60/1 59/59/1 57/57/1 58/58/1
f 62/62/1 61/61/1 59/59/1 60/60/1
f 64/64/1 63/63/1 61/61/1 62/62/1
f 66/66/1 65/65/1 63/63/1 64/64/1
f 70/33/2 69/31/2 68/32/2 67/34/2
f 69/31/2 72/29/2 71/30/2 68/32/2
f 72/29/2 74/27/2 73/28/2 71/30/2
f 74/27/2 76/25/2 75/26/2 73/28/2
f 76/25/2 78/23/2 77/24/2 75/26/2
f 78/23/2 80/21/2 79/22/2 77/24/2
f 80/21/2 82/19/2 81/20/2 79/22/2
f 82/19/2 84/17/2 83/18/2 81/20/2
f 84/17/2 86/15/2 85/16/2 83/18/2
f 86/15/2 88/13/2 87/14/2 85/16/2
f 88/13/2 90/11/2 89/12/2 87/14/2
f 90/11/2 92/9/2 91/10/2 89/12/2
f 92/9/2 94/7/2 93/8/2 91/10/2
f 94/7/2 96/5/2 95/6/2 93/8/2
f 96/5/2 98/3/2 97/4/2 95/6/2
f 98/3/2 100/2/2 99/1/2 97/4/2
f 104/65/2 103/63/2 102/64/2 101/66/2
f 103/63/2 106/61/2 105/62/2 102/64/2
f 106/61/2 108/59/2 107/60/2 105/62/2
f 108/59/2 110/57/2 109/58/2 107/60/2
f 110/57/2 112/55/2 111/56/2 109/58/2
f 112/55/2 114/53/2 113/54/2 111/56/2
f 114/53/2 116/51/2 115/52/2 113/54/2
f 116/51/2 118/49/2 117/50/2 115/52/2
f 118/49/2 120/47/2 119/48/2 117/50/2
f 120/47/2 122/45/2 121/46/2 119/48/2
f 122/45/2 124/43/2 123/44/2 121/46/2
f 124/43/2 126/41/2 125/42/2 123/44/2
f 126/41/2 128/39/2 127/40/2 125/42/2
f 128/39/2 130/37/2 129/38/2 127/40/2
f 130/37/2 132/35/2 131/36/2 129/38/2
f 132/35/2 70/33/2 67/34/2 131/36/2
f 136/68/3 135/67/3 134/34/3 133/33/3
f 138/70/3 137/69/3 135/67/3 136/68/3
f 140/72/3 139/71/3 137/69/3 138/70/3
f 142/74/3 141/73/3 139/71/3 140/72/3
f 144/76/3 143/75/3 141/73/3 142/74/3
f 146/78/3 145/77/3 143/75/3 144/76/3
f 148/80/3 147/79/3 145/77/3 146/78/3
f 150/31/3 149/32/3 147/79/3 148/80/3
f 152/82/3 151/81/3 149/32/3 150/31/3
f 154/84/3 153/83/3 151/81/3 152/82/3
f 156/86/3 155/85/3 153/83/3 154/84/3
f 158/88/3 157/87/3 155/85/3 156/86/3
f 160/90/3 159/89/3 157/87/3 158/88/3
f 162/92/3 161/91/3 159/89/3 160/90/3
f 164/94/3 163/93/3 161/91/3 162/92/3
f 166/29/3 165/30/3 163/93/3 164/94/3
f 168/96/3 167/95/3 165/30/3 166/29/3
f 170/98/3 169/97/3 167/95/3 168/96/3
f 172/100/3 171/99/3 169/97/3 170/98/3
f 174/102/3 173/101/3 171/99/3 172/100/3
f 176/104/3 175/103/3 173/101/3 174/102/3
f 178/106/3 177/105/3 175/103/3 176/104/3
f 180/108/3 179/107/3 177/105/3 178/106/3
f 182/27/3 181/28/3 179/107/3 180/108/3
f 184/110/3 183/109/3 181/28/3 182/27/3
f 186/112/3 185/111/3 183/109/3 184/110/3
f 188/114/3 187/113/3 185/111/3 186/112/3
f 190/116/3 189/115/3 187/113/3 188/114/3
f 192/118/3 191/117/3 189/115/3 190/116/3
f 194/120/3 193/119/3 191/117/3 192/118/3
f 196/122/3 195/121/3 193/119/3 194/120/3
f 198/25/3 197/26/3 195/121/3 196/122/3
f 200/124/3 199/123/3 197/26/3 198/25/3
f 202/126/3 201/125/3 199/123/3 200/124/3
f 204/128/3 203/127/3 201/125/3 202/126/3
f 206/130/3 205/129/3 203/127/3 204/128/3
f 208/132/3 207/131/3 205/129/3 206/130/3
f 210/134/3 209/133/3 207/131/3 208/132/3
f 212/136/3 211/135/3 209/133/3 210/134/3
f 214/23/3 213/24/3 211/135/3 212/136/3
f 216/138/3 215/137/3 213/24/3 214/23/3
f 218/140/3 217/139/3 215/137/3 216/138/3
f 220/142/3 219/141/3 217/139/3 218/140/3
f 222/144/3 221/143/3 219/141/3 220/142/3
f 224/146/3 223/145/3 221/143/3 222/144/3
f 226/148/3 225/147/3 223/145/3 224/146/3
f 228/150/3 227/149/3 225/147/3 226/148/3
f 230/21/3 229/22/3 227/149/3 228/150/3
f 232/152/3 231/151/3 229/22/3 230/21/3
f 234/154/3 233/153/3 231/151/3 232/152/3
f 236/156/3 235/155/3 233/153/3 234/154/3
f 238/158/3 237/157/3 235/155/3 236/156/3
f 240/160/3 239/159/3 237/157/3 238/158/3
f 242/162/3 241/161/3 239/159/3 240/160/3
f 244/164/3 243/163/3 241/161/3 242/162/3
f 246/19/3 245/20/3 243/163/3 244/164/3
f 248/166/3 247/165/3 245/20/3 246/19/3
f 250/168/3 249/167/3 247/165/3 248/166/3
f 252/170/3 251/169/3 249/167/3 250/168/3
f 254/172/3 253/171/3 251/169/3 252/170/3
f 256/174/3 255/173/3 253/171/3 254/172/3
f 258/176/3 257/175/3 255/173/3 256/174/3
f 260/178/3 259/177/3 257/175/3 258/176/3
f 262/17/3 261/18/3 259/177/3 260/178/3
f 264/180/3 263/179/3 261/18/3 262/17/3
f 266/182/3 265/181/3 263/179/3 264/180/3
f 268/184/3 267/183/3 265/181/3 266/182/3
f 270/186/3 269/185/3 267/183/3 268/184/3
f 272/188/3 271/187/3 269/185/3 270/186/3
f 274/190/3 273/189/3 271/187/3 272/188/3
f 276/192/3 275/191/3 273/189/3 274/190/3
f 278/15/3 277/16/3 275/191/3 276/192/3
f 280/194/3 279/193/3 277/16/3 278/15/3
f 282/196/3 281/195/3 279/193/3 280/194/3
f 284/198/3 283/197/3 281/195/3 282/196/3
f 286/200/3 285/199/3 283/197/3 284/198/3
f 288/202/3 287/201/3 285/199/3 286/200/3
f 290/204/3 289/203/3 287/201/3 288/202/3
f 292/206/3 291/205/3 289/203/3 290/204/3
f 294/13/3 293/14/3 291/205/3 292/206/3
f 296/208/3 295/207/3 293/14/3 294/13/3
f 298/210/3 297/209/3 295/207/3 296/208/3
f 300/212/3 299/211/3 297/209/3 298/210/3
f 302/214/3 301/213/3 299/211/3 300/212/3
f 304/216/3 303/215/3 301/213/3 302/214/3
f 306/218/3 305/217/3 303/215/3 304/216/3
f 308/220/3 307/219/3 305/217/3 306/218/3
f 310/11/3 309/12/3 307/219/3 308/220/3
f 312/222/3 311/221/3 309/12/3 310/11/3
f 314/224/3 313/223/3 311/221/3 312/222/3
f 316/226/3 315/225/3 313/223/3 314/224/3
f 318/228/3 317/227/3 315/225/3 316/226/3
f 320/230/3 319/229/3 317/227/3 318/228/3
f 322/232/3 321/231/3 319/229/3 320/230/3
f 324/234/3 323/233/3 321/231/3 322/232/3
f 326/9/3 325/10/3 323/233/3 324/234/3
f 328/236/3 327/235/3 325/10/3 326/9/3
f 330/238/3 329/237/3 327/235/3 328/236/3
f 332/240/3 331/239/3 329/237/3 330/238/3
f 334/242/3 333/241/3 331/239/3 332/240/3
f 336/244/3 335/243/3 333/241/3 334/242/3
f 338/246/3 337/245/3 335/243/3 336/244/3
f 340/248/3 339/247/3 337/245/3 338/246/3
f 342/7/3 341/8/3 339/247/3 340/248/3
f 344/250/3 343/249/3 341/8/3 342/7/3
f 346/252/3 345/251/3 343/249/3 344/250/3
f 348/254/3 347/253/3 345/251/3 346/252/3
f 350/256/3 349/255/3 347/253/3 348/254/3
f 352/258/3 351/257/3 349/255/3 350/256/3
f 354/260/3 353/259/3 351/257/3 352/258/3
f 356/262/3 355/261/3 353/259/3 354/260/3
f 358/5/3 357/6/3 355/261/3 356/262/3
f 360/264/3 359/263/3 357/6/3 358/5/3
f 362/266/3 361/265/3 359/263/3 360/264/3
f 364/268/3 363/267/3 361/265/3 362/266/3
f 366/270/3 365/269/3 363/267/3 364/268/3
f 368/272/3 367/271/3 365/269/3 366/270/3
f 370/274/3 369/273/3 367/271/3 368/272/3
f 372/276/3 371/275/3 369/273/3 370/274/3
f 374/3/3 373/4/3 371/275/3 372/276/3
f 376/278/3 375/277/3 373/4/3 374/3/3
f 378/280/3 377/279/3 375/277/3 376/278/3
f 380/282/3 379/281/3 377/279/3 378/280/3
f 382/284/3 381/283/3 379/281/3 380/282/3
f 384/286/3 383/285/3 381/283/3 382/284/3
f 386/288/3 385/287/3 383/285/3 384/286/3
f 388/290/3 387/289/3 385/287/3 386/288/3
f 65/2/3 66/1/3 387/289/3 388/290/3
f 390/292/3 389/291/3 99/66/3 100/65/3
f 392/294/3 391/293/3 389/291/3 390/292/3
f 394/296/3 393/295/3 391/293/3 392/294/3
f 396/298/3 395/297/3 393/295/3 394/296/3
f 398/300/3 397/299/3 395/297/3 396/298/3
f 400/302/3 399/301/3 397/299/3 398/300/3
f 402/304/3 401/303/3 399/301/3 400/302/3
f 404/63/3 403/64/3 401/303/3 402/304/3
f 406/306/3 405/305/3 403/64/3 404/63/3
f 408/308/3 407/307/3 405/305/3 406/306/3
f 410/310/3 409/309/3 407/307/3 408/308/3
f 412/312/3 411/311/3 409/309/3 410/310/3
f 414/314/3 413/313/3 411/311/3 412/312/3
f 416/316/3 415/315/3 413/313/3 414/314/3
f 418/318/3 417/317/3 415/315/3 416/316/3
f 420/61/3 419/62/3 417/317/3 418/318/3
f 422/320/3 421/319/3 419/62/3 420/61/3
f 424/322/3 423/321/3 421/319/3 422/320/3
f 426/324/3 425/323/3 423/321/3 424/322/3
f 428/326/3 427/325/3 425/323/3 426/324/3
f 430/328/3 429/327/3 427/325/3 428/326/3
f 432/330/3 431/329/3 429/327/3 430/328/3
f 434/332/3 433/331/3 431/329/3 432/330/3
f 436/59/3 435/60/3 433/331/3 434/332/3
f 438/334/3 437/333/3 435/60/3 436/59/3
f 440/336/3 439/335/3 437/333/3 438/334/3
f 442/338/3 441/337/3 439/335/3 440/336/3
f 444/340/3 443/339/3 441/337/3 442/338/3
f 446/342/3 445/341/3 443/339/3 444/340/3
f 448/344/3 447/343/3 445/341/3 446/342/3
f 450/346/3 449/345/3 447/343/3 448/344/3
f 452/57/3 451/58/3 449/345/3 450/346/3
f 454/348/3 453/347/3 451/58/3 452/57/3
f 456/350/3 455/349/3 453/347/3 454/348/3
f 458/352/3 457/351/3 455/349/3 456/350/3
f 460/354/3 459/353/3 457/351/3 458/352/3
f 462/356/3 461/355/3 459/353/3 460/354/3
f 464/358/3 463/357/3 461/355/3 462/356/3
f 466/360/3 465/359/3 463/357/3 464/358/3
f 468/55/3 467/56/3 465/359/3 466/360/3
f 470/362/3 469/361/3 467/56/3 468/55/3
f 472/364/3 471/363/3 469/361/3 470/362/3
f 474/366/3 473/365/3 471/363/3 472/364/3
f 476/368/3 475/367/3 473/365/3 474/366/3
f 478/370/3 477/369/3 475/367/3 476/368/3
f 480/372/3 479/371/3 477/369/3 478/370/3
f 482/374/3 481/373/3 479/371/3 480/372/3
f 484/53/3 483/54/3 481/373/3 482/374/3
f 486/376/3 485/375/3 483/54/3 484/53/3
f 488/378/3 487/377/3 485/375/3 486/376/3
f 490/380/3 489/379/3 487/377/3 488/378/3
f 492/382/3 491/381/3 489/379/3 490/380/3
f 494/384/3 493/383/3 491/381/3 492/382/3
f 496/386/3 495/385/3 493/383/3 494/384/3
f 498/388/3 497/387/3 495/385/3 496/386/3
f 500/51/3 499/52/3 497/387/3 498/388/3
f 502/390/3 501/389/3 499/52/3 500/51/3
f 504/392/3 503/391/3 501/389/3 502/390/3
f 506/394/3 505/393/3 503/391/3 504/392/3
f 508/396/3 507/395/3 505/393/3 506/394/3
f 510/398/3 509/397/3 507/395/3 508/396/3
f 512/400/3 511/399/3 509/397/3 510/398/3
f 514/402/3 513/401/3 511/399/3 512/400/3
f 516/49/3 515/50/3 513/401/3 514/402/3
f 518/404/3 517/403/3 515/50/3 516/49/3
f 520/406/3 519/405/3 517/403/3 518/404/3
f 522/408/3 521/407/3 519/405/3 520/406/3
f 524/410/3 523/409/3 521/407/3 522/408/3
f 526/412/3 525/411/3 523/409/3 524/410/3
f 528/414/3 527/413/3 525/411/3 526/412/3
f 530/416/3 529/415/3 527/413/3 528/414/3
f 532/47/3 531/48/3 529/415/3 530/416/3
f 534/418/3 533/417/3 531/48/3 532/47/3
f 536/420/3 535/419/3 533/417/3 534/418/3
f 538/422/3 537/421/3 535/419/3 536/420/3
f 540/424/3 539/423/3 537/421/3 538/422/3
f 542/426/3 541/425/3 539/423/3 540/424/3
f 544/428/3 543/427/3 541/425/3 542/426/3
f 546/430/3 545/429/3 543/427/3 544/428/3
f 548/45/3 547/46/3 545/429/3 546/430/3
f 550/432/3 549/431/3 547/46/3 548/45/3
f 552/434/3 551/433/3 549/431/3 550/432/3
f 554/436/3 553/435/3 551/433/3 552/434/3
f 556/438/3 555/437/3 553/435/3 554/436/3
f 558/440/3 557/439/3 555/437/3 556/438/3
f 560/442/3 559/441/3 557/439/3 558/440/3
f 562/444/3 561/443/3 559/441/3 560/442/3
f 564/43/3 563/44/3 561/443/3 562/444/3
f 566/446/3 565/445/3 563/44/3 564/43/3
f 568/448/3 567/447/3 565/445/3 566/446/3
f 570/450/3 569/449/3 567/447/3 568/448/3
f 572/452/3 571/451/3 569/449/3 570/450/3
f 574/454/3 573/453/3 571/451/3 572/452/3
f 576/456/3 575/455/3 573/453/3 574/454/3
f 578/458/3 577/457/3 575/455/3 576/456/3
f 580/41/3 579/42/3 577/457/3 578/458/3
f 582/460/3 581/459/3 579/42/3 580/41/3
f 584/462/3 583/461/3 581/459/3 582/460/3
f 586/464/3 585/463/3 583/461/3 584/462/3
f 588/466/3 587/465/3 585/463/3 586/464/3
f 590/468/3 589/467/3 587/465/3 588/466/3
f 592/470/3 591/469/3 589/467/3 590/468/3
f 594/472/3 593/471/3 591/469/3 592/470/3
f 596/39/3 595/40/3 593/471/3 594/472/3
f 598/474/3 597/473/3 595/40/3 596/39/3
f 600/476/3 599/475/3 597/473/3 598/474/3
f 602/478/3 601/477/3 599/475/3 600/476/3
f 604/480/3 603/479/3 601/477/3 602/478/3
f 606/482/3 605/481/3 603/479/3 604/480/3
f 608/484/3 607/483/3 605/481/3 606/482/3
f 610/486/3 609/485/3 607/483/3 608/484/3
f 612/37/3 611/38/3 609/485/3 610/486/3
f 614/488/3 613/487/3 611/38/3 612/37/3
f 616/490/3 615/489/3 613/487/3 614/488/3
f 618/492/3 617/491/3 615/489/3 616/490/3
f 620/494/3 619/493/3 617/491/3 618/492/3
f 622/496/3 621/495/3 619/493/3 620/494/3
f 624/498/3 623/497/3 621/495/3 622/496/3
f 626/500/3 625/499/3 623/497/3 624/498/3
f 628/35/3 627/36/3 625/499/3 626/500/3
f 630/502/3 629/501/3 627/36/3 628/35/3
f 632/504/3 631/503/3 629/501/3 630/502/3
f 634/506/3 633/505/3 631/503/3 632/504/3
f 636/508/3 635/507/3 633/505/3 634/506/3
f 638/510/3 637/509/3 635/507/3 636/508/3
f 640/512/3 639/511/3 637/509/3 638/510/3
f 642/514/3 641/513/3 639/511/3 640/512/3
f 133/33/3 134/34/3 641/513/3 642/514/3

